<svg xmlns="http://www.w3.org/2000/svg" style="width:1em;height:1em;vertical-align:middle;fill:currentColor;overflow:hidden" viewBox="0 0 1024 1024"><path fill="#555" d="M512 85.333c235.648 0 426.667 191.019 426.667 426.667 0 231.68-184.619 420.181-414.72 426.496l-11.947.17H42.667l147.072-147.029A425 425 0 0 1 85.333 512C85.333 276.352 276.352 85.333 512 85.333m0 85.334A341.333 341.333 0 0 0 170.667 512c0 78.805 26.709 153.259 74.794 213.248l8.704 10.41 52.139 60.075-57.643 57.6h262.187l10.752-.128a341.333 341.333 0 0 0-9.6-682.538M364.8 597.333c29.867 50.774 84.053 85.334 147.2 85.334a169.81 169.81 0 0 0 142.336-77.44l4.864-7.894h71.253a234.453 234.453 0 0 1-433.194 8.96l-3.712-8.96z"/></svg>
